<?xml version="1.0" encoding="UTF-8"?><svg id="Layer_1" xmlns="http://www.w3.org/2000/svg" viewBox="0 0 494.74 494"><defs><style>.cls-1{fill:#430299;}.cls-1,.cls-2{stroke-width:0px;}.cls-2{fill:#fdfdfe;}</style></defs><path class="cls-1" d="M0,246.83C.2,110.55,111.52-.44,247.57,0c136.98.45,247.49,111.12,247.17,247.54-.32,136.14-111.21,246.56-247.51,246.45C110.83,493.89-.2,382.89,0,246.83ZM247.38,51.64c-107.63.03-195.41,87.62-195.5,195.09-.09,107.72,87.63,195.57,195.36,195.63,107.76.06,195.71-87.68,195.76-195.29.05-107.59-87.9-195.45-195.61-195.43Z"/><path class="cls-2" d="M247.32,51.64c107.71-.03,195.67,87.84,195.61,195.43-.05,107.61-88,195.35-195.76,195.29-107.72-.06-195.45-87.91-195.36-195.63.09-107.47,87.87-195.06,195.5-195.09ZM165.77,161.86c-21.23,0-42.46.05-63.69-.06-2.83-.01-4.15.31-4.53,3.66-1.15,10.03-2.02,20.07-2.41,30.15-.62,16.25.22,32.38,3.46,48.4,4,19.8,15.47,32.09,35.21,36.9,20.2,4.92,40.25,4.76,60.2-1.06,17.06-4.97,28.07-15.93,32.87-33.16,2.23-8.01,3.99-16.09,5.05-24.32.26-1.96.96-2.52,2.86-2.49,6.78.1,13.56.12,20.33-.01,2.29-.04,2.99.71,3.26,2.99,1.1,9.26,3.09,18.34,6.08,27.2,4.37,12.94,12.49,22.49,25.4,27.39,24.21,9.19,48.67,9.38,73.19,1.28,13.74-4.54,22.47-13.95,26.62-27.84,3.17-10.6,4.65-21.43,5.18-32.41.86-17.77-.03-35.48-2.2-53.14-.34-2.77-1.11-3.55-3.92-3.55-42.72.1-85.43.11-128.15-.02-3.21,0-3.74,1.13-3.84,3.91-.43,11.87-1.14,23.74-.15,35.61.2,2.43-.53,3.09-2.89,3.02-5.5-.15-11-.21-16.49.02-2.83.12-3.69-.58-3.55-3.54.54-11.74.36-23.49-.22-35.24-.14-2.79-.93-3.8-3.98-3.77-21.23.16-42.46.08-63.69.08ZM248.65,322.91c-.41,0-.83,0-1.24,0,0,4.54.07,9.08-.02,13.62-.18,9.06-6.44,15.54-14.97,15.61-8.61.07-14.86-6.16-15.21-15.31-.14-3.7-.15-7.41,0-11.11.1-2.25-.45-3.11-2.92-3.08-12.4.13-24.8.11-37.2,0-2.38-.02-3.01.64-2.9,3.04,2.27,51.45,56.01,85.02,102.79,63.67,26.8-12.23,41.08-33.8,43.44-63.16.15-1.88.54-3.64-2.68-3.59-12.01.21-24.03.14-36.05.03-2.27-.02-2.77.79-2.7,2.86.13,4.08.13,8.17,0,12.26-.22,7.17-5.75,13.33-12.64,14.25-7.5,1-14.15-3.06-16.61-10-.93-2.62-.65-5.29-.77-7.95-.16-3.71.41-7.46-.33-11.14Z"/><path class="cls-1" d="M165.77,161.86c21.23,0,42.46.07,63.69-.08,3.06-.02,3.85.98,3.98,3.77.57,11.75.76,23.5.22,35.24-.14,2.97.72,3.66,3.55,3.54,5.49-.23,11-.17,16.49-.02,2.36.07,3.1-.59,2.89-3.02-.99-11.87-.29-23.74.15-35.61.1-2.78.64-3.92,3.84-3.91,42.72.12,85.43.11,128.15.02,2.81,0,3.58.78,3.92,3.55,2.17,17.66,3.06,35.37,2.2,53.14-.53,10.98-2.01,21.81-5.18,32.41-4.15,13.89-12.89,23.3-26.62,27.84-24.51,8.1-48.98,7.91-73.19-1.28-12.91-4.9-21.03-14.45-25.4-27.39-2.99-8.86-4.98-17.94-6.08-27.2-.27-2.27-.97-3.03-3.26-2.99-6.78.13-13.56.11-20.33.01-1.9-.03-2.6.53-2.86,2.49-1.07,8.23-2.82,16.31-5.05,24.32-4.8,17.23-15.81,28.19-32.87,33.16-19.95,5.82-40,5.98-60.2,1.06-19.75-4.81-31.21-17.1-35.21-36.9-3.24-16.01-4.08-32.15-3.46-48.4.39-10.08,1.26-20.12,2.41-30.15.38-3.35,1.7-3.68,4.53-3.66,21.23.11,42.46.06,63.69.06ZM164.97,177.31c-16.62,0-33.23,0-49.85.01-1.53,0-3.27-.63-3.46,2.15-1.32,19.52-1.72,38.97,1.5,58.4,2.42,14.6,9.29,24.66,24.56,28.05,15.73,3.49,31.31,3.69,47.09.37,15.54-3.27,24.81-12.14,28.35-27.77,4.32-19.08,5.41-38.34,5.33-57.78-.01-2.97-.9-3.52-3.67-3.5-16.62.13-33.23.07-49.85.07ZM325.3,177.31c-16.75,0-33.51.05-50.26-.06-2.5-.02-3.32.66-3.24,3.19.24,7.53,0,15.08.4,22.6.72,13.27,2.24,26.43,6.02,39.26,2.95,9.99,8.31,17.71,18.58,21.25,20.65,7.1,41.35,7.19,62.02.2,8.05-2.72,13.37-8.26,15.71-16.48,1.01-3.55,2.03-7.12,2.67-10.75,3.29-18.64,2.68-37.38,1.47-56.15-.16-2.49-1.07-3.13-3.5-3.11-16.63.11-33.25.06-49.88.06Z"/><path class="cls-1" d="M248.65,322.91c.74,3.67.17,7.43.33,11.14.12,2.67-.16,5.33.77,7.95,2.46,6.95,9.11,11.01,16.61,10,6.89-.92,12.42-7.08,12.64-14.25.13-4.08.13-8.17,0-12.26-.07-2.07.43-2.88,2.7-2.86,12.02.11,24.04.18,36.05-.03,3.22-.06,2.83,1.7,2.68,3.59-2.37,29.36-16.64,50.93-43.44,63.16-46.78,21.35-100.52-12.22-102.79-63.67-.11-2.4.52-3.06,2.9-3.04,12.4.1,24.8.12,37.2,0,2.47-.02,3.02.83,2.92,3.08-.16,3.7-.15,7.41,0,11.11.35,9.15,6.6,15.38,15.21,15.31,8.53-.07,14.79-6.55,14.97-15.61.09-4.54.02-9.08.02-13.62.41,0,.83,0,1.24,0Z"/><path class="cls-2" d="M164.97,177.31c16.62,0,33.23.07,49.85-.07,2.76-.02,3.65.53,3.67,3.5.08,19.44-1.01,38.7-5.33,57.78-3.54,15.63-12.8,24.5-28.35,27.77-15.78,3.32-31.36,3.13-47.09-.37-15.27-3.39-22.14-13.45-24.56-28.05-3.22-19.43-2.82-38.88-1.5-58.4.19-2.78,1.93-2.15,3.46-2.15,16.62-.02,33.23-.01,49.85-.01ZM202.42,219.63c.06-15.23-12.32-27.65-27.46-27.56-15.07.09-27.25,12.31-27.29,27.35-.03,15.12,12.03,27.39,27.09,27.53,15.25.14,27.6-12.06,27.66-27.33Z"/><path class="cls-2" d="M325.3,177.31c16.63,0,33.25.05,49.88-.06,2.43-.02,3.34.62,3.5,3.11,1.21,18.77,1.82,37.51-1.47,56.15-.64,3.63-1.66,7.2-2.67,10.75-2.34,8.22-7.66,13.76-15.71,16.48-20.68,6.99-41.37,6.9-62.02-.2-10.27-3.53-15.64-11.26-18.58-21.25-3.78-12.83-5.3-25.99-6.02-39.26-.41-7.52-.16-15.07-.4-22.6-.08-2.53.73-3.21,3.24-3.19,16.75.11,33.51.06,50.26.06ZM319.35,246.96c15.15.14,27.69-12.22,27.77-27.36.07-14.92-12.12-27.24-27.23-27.52-14.99-.28-27.72,12.28-27.76,27.37-.03,14.97,12.24,27.38,27.22,27.52Z"/><path class="cls-1" d="M202.42,219.63c-.06,15.27-12.41,27.47-27.66,27.33-15.05-.14-27.12-12.41-27.09-27.53.03-15.05,12.22-27.26,27.29-27.35,15.14-.09,27.52,12.33,27.46,27.56Z"/><path class="cls-1" d="M319.35,246.96c-14.97-.13-27.25-12.55-27.22-27.52.03-15.09,12.77-27.65,27.76-27.37,15.11.28,27.3,12.6,27.23,27.52-.08,15.14-12.62,27.5-27.77,27.36Z"/></svg>