<svg width="23" height="23" viewBox="0 0 23 23" fill="none" xmlns="http://www.w3.org/2000/svg">
<path d="M9.49437 2C7.95707 2 6.45431 2.45586 5.17609 3.30993C3.89788 4.16401 2.90164 5.37793 2.31334 6.79821C1.72505 8.21848 1.57112 9.78131 1.87103 11.2891C2.17094 12.7968 2.91122 14.1818 3.99825 15.2688C5.08528 16.3558 6.47024 17.0961 7.97799 17.396C9.48574 17.6959 11.0486 17.542 12.4688 16.9537C13.8891 16.3654 15.103 15.3692 15.9571 14.091C16.8112 12.8127 17.267 11.31 17.267 9.77268C17.2669 7.71128 16.448 5.73434 14.9903 4.27671C13.5327 2.81908 11.5558 2.00013 9.49437 2Z" stroke="#F5F5F5" stroke-width="3" stroke-miterlimit="10"/>
<path d="M15.2932 15.5716L20.7216 21" stroke="#F5F5F5" stroke-width="3" stroke-miterlimit="10" stroke-linecap="round"/>
</svg>
